<svg id="Icons" height="512" viewBox="0 0 74 74" width="512" xmlns="http://www.w3.org/2000/svg"><path d="m71 55.44a1 1 0 0 1 -1-1v-2.91a1 1 0 0 1 2 0v2.91a1 1 0 0 1 -1 1z"/><path d="m69 72h-64a3 3 0 0 1 -3-3v-44a1 1 0 0 1 1-1h68a1 1 0 0 1 1 1v9.56a1 1 0 0 1 -2 0v-8.56h-66v43a1 1 0 0 0 1 1h64a1 1 0 0 0 1-1v-7.56a1 1 0 0 1 2 0v7.56a3 3 0 0 1 -3 3z"/><path d="m71 45.53a1 1 0 0 1 -1-1v-2.97a1 1 0 0 1 2 0v2.97a1 1 0 0 1 -1 1z"/><path d="m54 11h-34a1 1 0 0 1 0-2h34a1 1 0 0 1 0 2z"/><path d="m71 26h-68a1 1 0 0 1 -1-1v-13a3 3 0 0 1 3-3h8a1 1 0 0 1 0 2h-8a1 1 0 0 0 -1 1v12h66v-12a1 1 0 0 0 -1-1h-8a1 1 0 0 1 0-2h8a3 3 0 0 1 3 3v13a1 1 0 0 1 -1 1z"/><path d="m60 18h-5a2 2 0 0 1 -2-2v-12a2 2 0 0 1 2-2h5a2 2 0 0 1 2 2v12a2 2 0 0 1 -2 2zm-5-14v12h5v-12z"/><path d="m19 18h-5a2 2 0 0 1 -2-2v-12a2 2 0 0 1 2-2h5a2 2 0 0 1 2 2v12a2 2 0 0 1 -2 2zm0-14h-5v12h5z"/><path d="m61.25 39.5h-5a2 2 0 0 1 -2-2v-5a2 2 0 0 1 2-2h5a2 2 0 0 1 2 2v5a2 2 0 0 1 -2 2zm-5-7v5h5v-5z"/><path d="m46.75 39.5h-5a2 2 0 0 1 -2-2v-5a2 2 0 0 1 2-2h5a2 2 0 0 1 2 2v5a2 2 0 0 1 -2 2zm-5-7v5h5v-5z"/><path d="m32.25 39.5h-5a2 2 0 0 1 -2-2v-5a2 2 0 0 1 2-2h5a2 2 0 0 1 2 2v5a2 2 0 0 1 -2 2zm-5-7v5h5v-5z"/><path d="m61.25 52.5h-5a2 2 0 0 1 -2-2v-5a2 2 0 0 1 2-2h5a2 2 0 0 1 2 2v5a2 2 0 0 1 -2 2zm-5-7v5h5v-5z"/><path d="m46.75 52.5h-5a2 2 0 0 1 -2-2v-5a2 2 0 0 1 2-2h5a2 2 0 0 1 2 2v5a2 2 0 0 1 -2 2zm-5-7v5h5v-5z"/><path d="m32.25 52.5h-5a2 2 0 0 1 -2-2v-5a2 2 0 0 1 2-2h5a2 2 0 0 1 2 2v5a2 2 0 0 1 -2 2zm-5-7v5h5v-5z"/><path d="m17.75 52.5h-5a2 2 0 0 1 -2-2v-5a2 2 0 0 1 2-2h5a2 2 0 0 1 2 2v5a2 2 0 0 1 -2 2zm-5-7v5h5v-5z"/><path d="m46.75 65.5h-5a2 2 0 0 1 -2-2v-5a2 2 0 0 1 2-2h5a2 2 0 0 1 2 2v5a2 2 0 0 1 -2 2zm-5-7v5h5v-5z"/><path d="m32.25 65.5h-5a2 2 0 0 1 -2-2v-5a2 2 0 0 1 2-2h5a2 2 0 0 1 2 2v5a2 2 0 0 1 -2 2zm-5-7v5h5v-5z"/><path d="m17.75 65.5h-5a2 2 0 0 1 -2-2v-5a2 2 0 0 1 2-2h5a2 2 0 0 1 2 2v5a2 2 0 0 1 -2 2zm-5-7v5h5v-5z"/></svg>